<svg id="Layer_1" data-name="Layer 1" xmlns="http://www.w3.org/2000/svg" viewBox="0 0 369.62 139.1"><defs><style>.cls-1{fill:#231f20;}.cls-2{fill:#1f4d99;}</style></defs><title>Gods_Blue</title><path class="cls-1" d="M335,139.23a7.6,7.6,0,0,1,2.42-.44l51.17-.14h8.2a3,3,0,0,0,3-3s0-.46,0-1a3,3,0,0,0-3.05-2.94c-1.53,0-5,0-7.78,0l-56.92,0a4.29,4.29,0,0,1-4.29-4.29V106.94A15.11,15.11,0,0,1,342.9,91.83h81.82c.13,0,0,.14-.08.25l-2.32,3.61c-1.48,2.31-3.87,5.91-5.3,8l-.14.18-1.66,2.06a9.46,9.46,0,0,1-7.17,3.51c-1.84,0-3.85,0-4.48,0s-3.38,0-6.13,0h-1.82l-10,0-23.57,0c-2.75,0-5.77,0-6.71,0a3,3,0,0,0-3.07,3c0,1,0,.72,0-.61s0-.18,0,2.57v1.09a3,3,0,0,0,3,3H419c1.63,0,5.07,2.42,5.07,4.74l.07,28.55a5.6,5.6,0,0,1-5.6,5.77l-92.36.08c-.45,0,0-.28.09-.72l2.48-10.17a11,11,0,0,1,5.54-7.21,2.62,2.62,0,0,1,.71-.33" transform="translate(-55.16 -18.56)"/><path class="cls-1" d="M247.84,157.24a.55.55,0,0,1-.51-.59V119a3.07,3.07,0,0,0-.35-1.48l-2.87-4-3-4.09c-.24-.34,0-.62.45-.62h52.54A12.3,12.3,0,0,1,299,110l6.42,3.42,5.9,3.14,6.06,3.23A3.44,3.44,0,0,1,319,122.5v14.84a7.28,7.28,0,0,1-2.77,5.31c-1.52,1.06-4.73,3-7.13,4.36l-6.23,3.47L294.78,155a21.82,21.82,0,0,1-8.75,2.15l-1.77,0c-2.75,0-7.25.06-10,.06H247.84Zm37.9-15.32c1.4-.74,4.51-2.45,6.89-3.82l2.79-1.59c2.39-1.37,4.34-2.7,4.35-2.95s0-.68,0-.92,0-1.2,0-2.11a23.15,23.15,0,0,0-.18-2.38,2.28,2.28,0,0,0-1.26-1.23c-.62-.28-2.78-1.22-4.79-2.07a18.33,18.33,0,0,0-5.83-1.51c-1.19,0-4.41.06-7.16.06h-5.83l-6.05,0a1.13,1.13,0,0,0-1,1.23c0,.68,0,3.5,0,6.25l0,5c0,2.75,0,5.55,0,6.22s.45,1.2.94,1.2H281a12.83,12.83,0,0,0,4.77-1.34" transform="translate(-55.16 -18.56)"/><path class="cls-1" d="M233,152.24a5,5,0,0,1-5,5H166.17a5,5,0,0,1-5-5V113.89a5,5,0,0,1,5-5H228a5,5,0,0,1,5,5ZM213,128.31a5,5,0,0,0-5-5l-20.47,0a5,5,0,0,0-5,5v10a5,5,0,0,0,5,5H208a5,5,0,0,0,5-5Z" transform="translate(-55.16 -18.56)"/><path class="cls-1" d="M144.42,105.4c-1.9,2.11-4.39,4.18-10.3,4.27-2.85,0-3.56.08-3.73.1H86a3.59,3.59,0,0,0-3.57,3.55c0,7,0,15.9,0,21.9a3.33,3.33,0,0,0,3.33,3.34l34.38,0h6.49a1.63,1.63,0,0,0,1.63-1.62v-2.19a6.88,6.88,0,0,0-.05-.9,12,12,0,0,0-1.38-2.45,1.09,1.09,0,0,0-.13-.17l-.26-.29c-1.81-2.06-4.38-5-5.71-6.57s-2.19-2.8-1.92-2.8,2.75,0,5.5,0l24,0a3.93,3.93,0,0,1,3.92,3.86l.43,26.36a5.33,5.33,0,0,1-5.34,5.42H61a5.88,5.88,0,0,1-5.88-5.88V106.81A15.31,15.31,0,0,1,70.48,91.5l84.14,0" transform="translate(-55.16 -18.56)"/><polygon class="cls-2" points="217.75 36.09 276.35 12.81 247.81 64.06 207.35 68.24 217.75 36.09"/><polygon class="cls-2" points="151.87 36.09 93.28 12.81 121.81 64.06 162.27 68.24 151.87 36.09"/><polygon class="cls-2" points="184.33 83.97 257.94 83.97 247.01 68.64 199.81 73.85 212.54 34.28 184.66 0 157.07 34.28 169.81 73.85 122.61 68.64 111.68 83.97 185.29 83.97 184.33 83.97"/></svg>